# xmcd CD database file
#
# Track frame offsets:
#	150
#	16232
#	28863
#	42554
#	59895
#	76046
#	89046
#	102956
#	119529
#	133507
#	142757
#	156661
#	173583
#	196506
#	210130
#
# Disc length: 3100 seconds
#
# Revision: 0
# Processed by: cddbd v1.5.2PL0 Copyright (c) Steve Scherf et al.
# Submitted via: CDex 1.51
#
DISCID=c70c1a0f
DTITLE=Jodie - Moving on
DYEAR=2004
DGENRE=Country
TTITLE0=Blame it on your Heart
TTITLE1=San Antonio Stroll
TTITLE2=Watermelon Crawl
TTITLE3=He Thinks he´ll keep her
TTITLE4=Long tall Texan
TTITLE5=I fall to pieces
TTITLE6=One more last Chance
TTITLE7=Long Time gone
TTITLE8=Somewhere other than the night
TTITLE9=Walking after midnight (feat. Simon)
TTITLE10=Sold
TTITLE11=Leave me a little bit longer
TTITLE12=Trawling Soldier
TTITLE13=Rosegarden
TTITLE14=Lant tall tesan feat. Simons Megaphon Vocals
EXTD=YEAR: 2004
EXTT0=
EXTT1=
EXTT2=
EXTT3=
EXTT4=
EXTT5=
EXTT6=
EXTT7=
EXTT8=
EXTT9=
EXTT10=
EXTT11=
EXTT12=
EXTT13=
EXTT14=
PLAYORDER=
